<svg xmlns="http://www.w3.org/2000/svg" width="30.3" height="43.132" viewBox="0 0 30.3 43.132">
  <g id="Group_10858" data-name="Group 10858" transform="translate(-576.071 -397.103)">
    <path id="Path_51" data-name="Path 51" d="M156.244,113.764h-.022a15.112,15.112,0,0,0-15.15,15.074v.022c0,11.323,15.15,28.036,15.15,28.036s15.149-16.713,15.149-28.036a15.111,15.111,0,0,0-15.127-15.1" transform="translate(435 283.339)" fill="#ff7d39"/>
    <path id="Path_52" data-name="Path 52" d="M171.371,128.863c0,7.034-5.891,16.185-10.305,22.08l.065-36.377a15.089,15.089,0,0,1,10.24,14.3" transform="translate(435 283.339)" fill="#003d7a"/>
    <path id="Path_53" data-name="Path 53" d="M151.077,114.648l.126,36.062c-4.383-5.905-10.132-14.819-10.132-21.731v-.021a15.245,15.245,0,0,1,10.006-14.31" transform="translate(435 283.339)" fill="#00afe2"/>
    <path id="Path_54" data-name="Path 54" d="M160.093,128.868a3.993,3.993,0,1,1-3.994-3.994,3.994,3.994,0,0,1,3.994,3.994" transform="translate(435 283.339)" fill="#fff"/>
  </g>
</svg>
