<svg xmlns="http://www.w3.org/2000/svg" width="18.589" height="20.543" viewBox="0 0 18.589 20.543">
  <path id="calendar_month_FILL0_wght400_GRAD0_opsz48" d="M7.466,23.543A1.5,1.5,0,0,1,6,22.078V6.932A1.5,1.5,0,0,1,7.466,5.466H9.054V4h1.588V5.466h8.306V4h1.588V5.466h1.588a1.5,1.5,0,0,1,1.466,1.466V22.078a1.5,1.5,0,0,1-1.466,1.466Zm0-1.466H22.123v-10.5H7.466Zm0-11.97H22.123V6.932H7.466Zm0,0v0Zm7.329,5.619a.96.96,0,1,1,.7-.281A.946.946,0,0,1,14.795,15.726Zm-3.909,0a.96.96,0,1,1,.7-.281A.946.946,0,0,1,10.886,15.726Zm7.817,0a.96.96,0,1,1,.7-.281A.945.945,0,0,1,18.7,15.726Zm-3.909,3.909a.96.96,0,1,1,.7-.281A.945.945,0,0,1,14.795,19.635Zm-3.909,0a.96.96,0,1,1,.7-.281A.946.946,0,0,1,10.886,19.635Zm7.817,0a.96.96,0,1,1,.7-.281A.945.945,0,0,1,18.7,19.635Z" transform="translate(-5.5 -3.5)" fill="#495a64" stroke="#707070" stroke-width="1"/>
</svg>
