<svg xmlns="http://www.w3.org/2000/svg" width="30.399" height="19" viewBox="0 0 30.399 19">
  <g id="card_x2C__credit_x2C__Mastercard_x2C___bank_x2C__debit_x2C_" transform="translate(-0.218 0)">
    <g id="Mastercard" transform="translate(0.218 0)">
      <path id="Path_760" data-name="Path 760" d="M46.4,123.98A1.019,1.019,0,0,1,45.385,125H17.019A1.019,1.019,0,0,1,16,123.98V107.014A1.019,1.019,0,0,1,17.019,106H45.385a1.019,1.019,0,0,1,1.017,1.017V123.98Z" transform="translate(-16.002 -105.997)" fill="#14477c"/>
      <path id="Path_761" data-name="Path 761" d="M233.313,180.486l.292-.005.292-.017.286-.039.28-.044.274-.061.274-.066.262-.089.262-.094.25-.105.244-.116.238-.127.232-.138.226-.149.214-.155.2-.166.2-.177.185-.182.179-.193.172-.2.161-.2.143-.216.143-.221.119-.227.119-.238.1-.238.089-.249.077-.249.065-.254.048-.266.036-.26.023-.271.006-.271-.006-.271-.023-.271-.036-.26-.048-.259-.065-.255-.077-.249-.089-.249-.1-.238-.119-.232-.119-.227-.143-.221-.143-.216-.161-.2-.172-.2-.179-.193-.185-.182-.2-.172-.2-.166-.214-.16-.226-.144-.232-.138-.238-.127-.244-.116-.25-.105-.262-.094-.262-.083-.274-.072-.274-.061-.28-.044-.286-.033-.292-.022-.292-.005-.292.005-.286.022-.286.033-.28.044-.274.061-.274.072-.262.083-.256.094-.25.105-.244.116-.238.127-.232.138-.22.144-.215.16-.208.166-.2.172-.191.182-.172.193-.173.2-.155.2-.149.216-.137.221-.125.227-.113.232-.1.238-.089.249-.077.249-.066.255-.047.259-.036.26-.024.271-.006.271.006.271.024.271.036.26.047.266.066.254.077.249.089.249.1.238.113.238.125.227.137.221.149.216.155.2.173.2.172.193.191.182.2.177.208.166.215.155.22.149.232.138.238.127.244.116.25.105.256.094.262.089.274.066.274.061.28.044.286.039.286.017Z" transform="translate(-214.555 -165.709)" fill="#fbb230"/>
      <path id="Path_762" data-name="Path 762" d="M117.829,180.486l.292-.005.286-.017.286-.039.28-.044.274-.061.274-.066.262-.089.256-.094.25-.105.244-.116.238-.127.232-.138.22-.149.215-.155.208-.166.2-.177.191-.182.173-.193.173-.2.155-.2.149-.216.137-.221.125-.227.113-.238.1-.238.089-.249.078-.249.066-.254.047-.266.036-.26.024-.271.006-.271-.006-.271-.024-.271-.036-.26-.047-.259-.066-.255-.078-.249-.089-.249-.1-.238-.113-.232-.125-.227-.137-.221-.149-.216-.155-.2-.173-.2-.173-.193-.191-.182-.2-.172-.208-.166-.215-.16-.22-.144-.232-.138-.238-.127-.244-.116-.25-.105-.256-.094-.262-.083-.274-.072-.274-.061-.28-.044-.286-.033-.286-.022-.292-.005-.292.005-.292.022-.286.033-.28.044-.273.061-.274.072-.262.083-.262.094-.25.105-.244.116-.239.127-.232.138-.226.144-.215.16-.2.166-.2.172-.185.182-.179.193-.172.2-.161.2-.143.216-.143.221-.119.227-.119.232-.1.238-.089.249-.078.249-.059.255-.054.259-.035.26-.024.271-.006.271.006.271.024.271.035.26.054.266.059.254.078.249.089.249.1.238.119.238.119.227.143.221.143.216.161.2.172.2.179.193.185.182.2.177.2.166.215.155.226.149.232.138.239.127.244.116.25.105.262.094.262.089.274.066.273.061.28.044.286.039.292.017Z" transform="translate(-106.188 -165.709)" fill="#eb2230"/>
      <path id="Path_763" data-name="Path 763" d="M245.943,198.553h3.02v-.31H246.2Z" transform="translate(-231.446 -192.405)" fill="#fbb230"/>
      <path id="Path_764" data-name="Path 764" d="M239.091,208.923h3.472v-.31H239.27Z" transform="translate(-225.037 -202.119)" fill="#fbb230"/>
      <path id="Path_765" data-name="Path 765" d="M233.952,219.293h3.812v-.31h-3.675Z" transform="translate(-220.23 -211.833)" fill="#fbb230"/>
      <path id="Path_766" data-name="Path 766" d="M230.434,229.75h4.044v-.3h-3.949Z" transform="translate(-216.939 -221.633)" fill="#fbb230"/>
      <path id="Path_767" data-name="Path 767" d="M231.163,279.981h3.919v-.31h-4.014Z" transform="translate(-217.532 -268.68)" fill="#fbb230"/>
      <path id="Path_768" data-name="Path 768" d="M234.816,290.35h3.633v-.31h-3.776Z" transform="translate(-220.904 -278.392)" fill="#fbb230"/>
      <path id="Path_769" data-name="Path 769" d="M240.28,300.721H243.5v-.31h-3.418Z" transform="translate(-225.965 -288.107)" fill="#fbb230"/>
      <path id="Path_770" data-name="Path 770" d="M247.665,311.09h2.662v-.31h-2.936Z" transform="translate(-232.801 -297.82)" fill="#fbb230"/>
      <path id="Path_771" data-name="Path 771" d="M228.363,240.115h4.181v-.3h-4.121Z" transform="translate(-215.001 -231.342)" fill="#fbb230"/>
      <path id="Path_772" data-name="Path 772" d="M266.954,269.61h1.6v-.31h-1.536Z" transform="translate(-251.097 -258.965)" fill="#fbb230"/>
      <path id="Path_773" data-name="Path 773" d="M268.846,259.24h1.471v-.31h-1.411Z" transform="translate(-252.866 -249.252)" fill="#fbb230"/>
      <path id="Path_774" data-name="Path 774" d="M226.736,258.93h.417v.31h-.393Z" transform="translate(-213.397 -249.252)" fill="#fbb230"/>
      <path id="Path_775" data-name="Path 775" d="M387.79,304.379a.271.271,0,0,1,.268.268.268.268,0,1,1-.536,0,.27.27,0,0,1,.268-.268Zm0,.048a.223.223,0,1,1-.221.22.225.225,0,0,1,.221-.22Z" transform="translate(-364.01 -291.831)" fill="#fbb230"/>
      <path id="Path_776" data-name="Path 776" d="M390.049,307.038v-.226h.1a.13.13,0,0,1,.054.006.083.083,0,0,1,.024.017.09.09,0,0,1,.012.036.072.072,0,0,1-.012.042.118.118,0,0,1-.048.024.1.1,0,0,1,.048.054l.03.048H390.2l-.036-.054a.066.066,0,0,0-.024-.03c0-.006-.006-.006-.012-.012h-.03v.1Zm.047-.131h.03c.024,0,.035,0,.042-.006s.012,0,.012-.006a.031.031,0,0,0,0-.036c-.007-.006-.012-.006-.018-.012H390.1v.06Z" transform="translate(-366.366 -294.1)" fill="#fbb230"/>
      <path id="Path_777" data-name="Path 777" d="M386.891,270.472a.268.268,0,1,1-.268.268.267.267,0,0,1,.268-.268Zm0,.048a.223.223,0,1,1-.226.221.225.225,0,0,1,.226-.221Z" transform="translate(-363.168 -260.069)" fill="#fff"/>
      <path id="Path_778" data-name="Path 778" d="M389.143,273.126V272.9h.1a.13.13,0,0,1,.054.006c.006,0,.017.012.024.018a.081.081,0,0,1,.012.036.052.052,0,0,1-.018.041c-.006.012-.023.018-.041.024.006.006.018.012.024.018a.3.3,0,0,1,.024.035l.03.042h-.054l-.036-.048c-.012-.018-.018-.03-.024-.03s-.006-.012-.011-.012h-.036v.09h-.042Zm.042-.125h.036c.024,0,.035,0,.042-.006a.022.022,0,0,0,.018-.024.062.062,0,0,0-.006-.018c-.006-.006-.012-.012-.018-.012h-.071V273Z" transform="translate(-365.518 -262.339)" fill="#fff"/>
      <path id="Path_779" data-name="Path 779" d="M332.7,248.243l.387-2.024h.482l.06.208a.694.694,0,0,1,.536-.208l-.149.536c-.131,0-.334-.024-.5.369a6.807,6.807,0,0,0-.25,1.119Z" transform="translate(-312.68 -237.382)" fill="#fff"/>
      <path id="Path_780" data-name="Path 780" d="M216.091,238.554h.535l-.119.536h.3l-.09.417h-.268l-.149.8c-.03.149,0,.3.3.238l-.059.447a.542.542,0,0,1-.864-.536Z" transform="translate(-203.038 -230.213)" fill="#fff"/>
      <path id="Path_781" data-name="Path 781" d="M233.253,247.35c.059-.328.208-1.131-.75-1.131a1.031,1.031,0,0,0-1.012,1.012.878.878,0,0,0,.923,1.012,2.51,2.51,0,0,0,.721-.089l.089-.417a2.962,2.962,0,0,1-.631.06c-.208,0-.566,0-.506-.447h1.167Z" transform="translate(-217.871 -237.382)" fill="#fff"/>
      <path id="Path_782" data-name="Path 782" d="M123.619,242.345l.477-2.442h-.929l-.655,1.489-.119-1.489h-.863l-.477,2.442h.536l.358-1.757.149,1.757h.506l.774-1.727-.328,1.727Z" transform="translate(-114.429 -231.474)" fill="#fff"/>
      <path id="Path_783" data-name="Path 783" d="M164.232,246.4l-.089.447c.149,0,.506-.06.685-.06s.417-.03.328.268c-.149,0-1.132-.149-1.281.715-.083.572.6.78,1.012.506l.06.119h.506l.209-1.1c.22-.995-.738-1.012-1.429-.893Z" transform="translate(-154.527 -237.507)" fill="#fff"/>
      <path id="Path_784" data-name="Path 784" d="M281.142,240.474a.621.621,0,0,0-.393-.083.688.688,0,0,0-.614.613c-.083.56.28.81.81.643l.143.477c-.905.453-1.769-.25-1.483-1.346.232-.828,1.328-1.328,1.876-.643Z" transform="translate(-262.905 -231.389)" fill="#fff"/>
      <path id="Path_785" data-name="Path 785" d="M354.049,238.872c-1.459-1.1-2.025,1.786-.894,1.786a1.12,1.12,0,0,0,.477-.149l.059.149h.6l.477-2.561H354.2Z" transform="translate(-331.309 -229.785)" fill="#fff"/>
      <path id="Path_786" data-name="Path 786" d="M305.008,246.4l-.089.447c.148,0,.506-.06.684-.06s.387-.03.328.268c-.149,0-1.132-.149-1.28.715a.549.549,0,0,0,.566.625.665.665,0,0,0,.446-.119l.059.119h.507l.208-1.1c.226-.995-.733-1.012-1.429-.893Z" transform="translate(-286.412 -237.507)" fill="#fff"/>
      <path id="Path_787" data-name="Path 787" d="M240.625,252.293h.685c.077-.542-.572-.435-.685,0Z" transform="translate(-226.413 -242.692)" fill="#eb2230"/>
      <path id="Path_788" data-name="Path 788" d="M172.985,263.139a.721.721,0,0,0-.477.06c-.178.119-.238.327-.029.387a.405.405,0,0,0,.476-.238Z" transform="translate(-162.454 -253.183)" fill="#eb2230"/>
      <path id="Path_789" data-name="Path 789" d="M361.087,253.285c-.179-.238-.566-.059-.685.387-.089.3.09.506.268.506.375,0,.6-.613.417-.893Z" transform="translate(-338.592 -243.879)" fill="#fbb230"/>
      <path id="Path_790" data-name="Path 790" d="M314.2,263.139a.72.72,0,0,0-.477.06c-.178.119-.238.327-.029.387a.39.39,0,0,0,.476-.238Z" transform="translate(-294.734 -253.183)" fill="#fbb230"/>
      <path id="Path_791" data-name="Path 791" d="M258.3,248.693l.03-.208.357-1.816h.476l.059.208a.7.7,0,0,1,.536-.208l-.149.536c-.113,0-.352-.024-.53.453a7.268,7.268,0,0,0-.214,1.036Z" transform="translate(-242.983 -237.803)" fill="#fff"/>
      <path id="Path_792" data-name="Path 792" d="M193.265,247.674h-.048l-.024-.006-.024-.006h-.024l-.024-.006a1.725,1.725,0,0,0-.3-.012c-.274.024-.393.2-.161.327.185.107.328.089.452.209a.615.615,0,0,1-.167.917l-.053.024-.059.024-.065.018-.059.018a2.155,2.155,0,0,1-.953-.059l.077-.4c.226.048.6.149.768.03.2-.131.018-.286-.125-.352l-.071-.024-.071-.03a.564.564,0,0,1,.1-1.084,2.156,2.156,0,0,1,.649-.03h.041a1.1,1.1,0,0,1,.149.024h.024l.018.006h.018l.012.006h.018l-.1.4Z" transform="translate(-180.648 -238.321)" fill="#fff"/>
    </g>
  </g>
</svg>
