<svg xmlns="http://www.w3.org/2000/svg" width="56.9" height="81" viewBox="0 0 56.9 81">
  <g id="Group_10862" data-name="Group 10862" transform="translate(-575.437 -283.339)">
    <path id="Path_47" data-name="Path 47" d="M168.929,0h-.042a28.379,28.379,0,0,0-28.45,28.308v.042c0,21.263,28.45,52.65,28.45,52.65s28.45-31.387,28.45-52.65A28.379,28.379,0,0,0,168.929,0" transform="translate(435 283.339)" fill="#ff7d39"/>
    <path id="Path_48" data-name="Path 48" d="M197.337,28.355c0,13.21-11.063,30.4-19.353,41.465L178.106,1.5a28.34,28.34,0,0,1,19.231,26.85" transform="translate(435 283.339)" fill="#003d7a"/>
    <path id="Path_49" data-name="Path 49" d="M159.227,1.661l.236,67.724c-8.23-11.09-19.026-27.83-19.026-40.81v-.04a28.625,28.625,0,0,1,18.79-26.874" transform="translate(435 283.339)" fill="#00afe2"/>
    <path id="Path_50" data-name="Path 50" d="M176.157,28.366a7.5,7.5,0,1,1-7.5-7.5,7.5,7.5,0,0,1,7.5,7.5" transform="translate(435 283.339)" fill="#fff"/>
  </g>
</svg>
