<svg xmlns="http://www.w3.org/2000/svg" width="26.438" height="26.438" viewBox="0 0 26.438 26.438">
  <path id="Icon_awesome-user-circle" data-name="Icon awesome-user-circle" d="M12.719.563A12.719,12.719,0,1,0,25.438,13.281,12.717,12.717,0,0,0,12.719.563Zm0,4.923A4.513,4.513,0,1,1,8.206,10,4.513,4.513,0,0,1,12.719,5.486Zm0,17.642a9.828,9.828,0,0,1-7.513-3.5,5.718,5.718,0,0,1,5.052-3.067,1.255,1.255,0,0,1,.364.056,6.79,6.79,0,0,0,2.1.354,6.764,6.764,0,0,0,2.1-.354,1.255,1.255,0,0,1,.364-.056,5.718,5.718,0,0,1,5.052,3.067A9.828,9.828,0,0,1,12.719,23.128Z" transform="translate(0.5 -0.063)" fill="#f7f7f7" stroke="#495a64" stroke-width="1"/>
</svg>
