<svg xmlns="http://www.w3.org/2000/svg" width="16" height="18.462" viewBox="0 0 16 18.462"><defs><style>.a{fill:#778893;}</style></defs><g transform="translate(-1694.346 -730.713)"><g transform="translate(1694.346 730.713)"><path class="a" d="M55.621,1266.4l-6.261,6.226a.511.511,0,0,1-.719,0L42.38,1266.4a.5.5,0,0,1,0-.713l.829-.822a.5.5,0,0,1,.723.008l3.964,4.074V1258.5a.507.507,0,0,1,.508-.5h1.185a.507.507,0,0,1,.508.5v10.438l3.964-4.074a.512.512,0,0,1,.723-.008l.829.822a.494.494,0,0,1,.008.713Zm.879,7.6h-15a.539.539,0,0,0-.5.568v1.325a.539.539,0,0,0,.5.568h15a.539.539,0,0,0,.5-.568v-1.325A.539.539,0,0,0,56.5,1274Z" transform="translate(-41 -1258)"/></g></g></svg>