<svg xmlns="http://www.w3.org/2000/svg" width="30.281" height="43.259" viewBox="0 0 30.281 43.259">
  <g id="Group_10829" data-name="Group 10829" transform="translate(-960 -498.532)">
    <path id="Icon_material-location-on" data-name="Icon material-location-on" d="M22.641,3A15.13,15.13,0,0,0,7.5,18.141C7.5,29.5,22.641,46.259,22.641,46.259S37.781,29.5,37.781,18.141A15.13,15.13,0,0,0,22.641,3Zm0,20.548a5.407,5.407,0,1,1,5.407-5.407A5.409,5.409,0,0,1,22.641,23.548Z" transform="translate(952.5 495.532)" fill="#003d7a"/>
    <path id="Subtraction_1" data-name="Subtraction 1" d="M4923.141,11638.79h0c-.006-.007-.055-.06-.14-.156v-22.555l.141,0a5.407,5.407,0,0,0,0-10.814l-.141,0v-9.733h.141a15.128,15.128,0,0,1,15.14,15.14,23.211,23.211,0,0,1-2.366,9.184,61.881,61.881,0,0,1-5.2,9.134,100.182,100.182,0,0,1-7.569,9.8Z" transform="translate(-3948 -11097)" fill="#ff7d39"/>
  </g>
</svg>
