<svg xmlns="http://www.w3.org/2000/svg" width="20" height="17.778" viewBox="0 0 20 17.778"><defs><style>.a{fill:#fff;}</style></defs><path class="a" d="M15.9,18.522v-.916a4.963,4.963,0,0,0,2.222-4.129c0-2.761,0-5-3.333-5s-3.333,2.239-3.333,5a4.963,4.963,0,0,0,2.222,4.129v.916c-3.769.308-6.667,2.16-6.667,4.4H22.571c0-2.239-2.9-4.091-6.667-4.4Zm-7.653.429a10.556,10.556,0,0,1,3.469-1.4,6.268,6.268,0,0,1-.7-1.025,6.362,6.362,0,0,1-.807-3.054,9.865,9.865,0,0,1,.531-4.058,3.618,3.618,0,0,1,2.764-2.074c-.294-1.328-1.075-2.2-3.157-2.2-3.333,0-3.333,2.239-3.333,5a4.963,4.963,0,0,0,2.222,4.129v.916c-3.769.308-6.667,2.16-6.667,4.4H7.415a7.117,7.117,0,0,1,.837-.637Z" transform="translate(-2.571 -5.143)"/></svg>