<svg xmlns="http://www.w3.org/2000/svg" width="26" height="26.391" viewBox="0 0 26 26.391"><defs><style>.a{fill:#778893;}</style></defs><g transform="translate(-292.361 -293.006)"><path class="a" d="M49.213,31.509l-8.345-8.345a.541.541,0,0,0-.921.345l-.113,1.778L32.718,32.4l-3.054.431a.539.539,0,0,0-.307.91l3.7,3.7-9.05,9.018a.539.539,0,0,0-.14.253l-.49,2.015a.538.538,0,0,0,.646.652l2.02-.49a.6.6,0,0,0,.253-.145L35.309,39.7l3.318,3.324a.529.529,0,0,0,.9-.307l.431-3.06,7.111-7.111,1.783-.113a.554.554,0,0,0,.361-.927Z" transform="translate(269 270)"/></g></svg>