<svg xmlns="http://www.w3.org/2000/svg" width="22.5" height="20" viewBox="0 0 22.5 20">
  <path id="Icon_metro-users" data-name="Icon metro-users" d="M17.571,20.194V19.163a5.583,5.583,0,0,0,2.5-4.645c0-3.107,0-5.625-3.75-5.625s-3.75,2.518-3.75,5.625a5.583,5.583,0,0,0,2.5,4.645v1.031c-4.24.347-7.5,2.43-7.5,4.949h17.5c0-2.519-3.26-4.6-7.5-4.949Zm-8.609.483a11.876,11.876,0,0,1,3.9-1.571,7.051,7.051,0,0,1-.791-1.153,7.158,7.158,0,0,1-.908-3.435,11.1,11.1,0,0,1,.6-4.566,4.07,4.07,0,0,1,3.11-2.334c-.33-1.494-1.21-2.476-3.551-2.476-3.75,0-3.75,2.518-3.75,5.625a5.583,5.583,0,0,0,2.5,4.645v1.031c-4.24.347-7.5,2.43-7.5,4.949H8.021A8.006,8.006,0,0,1,8.962,20.677Z" transform="translate(-2.571 -5.143)" fill="#495a64"/>
</svg>
