<svg xmlns="http://www.w3.org/2000/svg" width="26" height="25.985" viewBox="0 0 26 25.985"><defs><style>.a{fill:#778893;}</style></defs><g transform="translate(-496.008 -135.021)"><g transform="translate(496.008 135.021)"><path class="a" d="M27.736,10.732,19.275,2.271a.983.983,0,0,0-1.356.046A4.832,4.832,0,0,0,16.87,7.593L12.663,11.8a4.854,4.854,0,0,0-6.241.6.925.925,0,0,0,0,1.31l3.334,3.334L3.208,23.623a.913.913,0,0,0-.223.362l-.929,2.786a.915.915,0,0,0,.223.947.848.848,0,0,0,.65.288,1.1,1.1,0,0,0,.3-.046l2.786-.929a.913.913,0,0,0,.362-.223l6.576-6.548,3.334,3.334a.892.892,0,0,0,.632.251,1.035,1.035,0,0,0,.724-.3,4.853,4.853,0,0,0,.557-6.195l4.217-4.217a4.865,4.865,0,0,0,5.322-1.087A.936.936,0,0,0,27.736,10.732ZM5.214,25.341,4.4,25.61l.269-.817,6.4-6.427.576.576Zm17.5-14.126a.914.914,0,0,0-1.133.139l-5.285,5.285a.946.946,0,0,0-.251.678.99.99,0,0,0,.3.678,2.989,2.989,0,0,1,.529,3.529L8.493,13.147a3.048,3.048,0,0,1,3.585.567.925.925,0,0,0,1.31,0l5.285-5.285A.916.916,0,0,0,18.811,7.3a2.989,2.989,0,0,1-.084-2.963L25.693,11.3A3.023,3.023,0,0,1,22.712,11.215Z" transform="translate(-2.008 -2.021)"/></g></g></svg>