<svg xmlns="http://www.w3.org/2000/svg" width="24" height="24" viewBox="0 0 24 24"><defs><style>.a{fill:#fff;}</style></defs><path class="a" d="M8.7,22.2a2.4,2.4,0,1,0,2.4,2.4A2.4,2.4,0,0,0,8.7,22.2ZM1.5,3V5.4H3.9l4.32,9.108L6.6,17.448A2.32,2.32,0,0,0,6.3,18.6,2.407,2.407,0,0,0,8.7,21H23.1V18.6H9.2a.3.3,0,0,1-.3-.3l.036-.144L10.02,16.2h8.94a2.389,2.389,0,0,0,2.1-1.236l4.3-7.788A1.172,1.172,0,0,0,25.5,6.6a1.2,1.2,0,0,0-1.2-1.2H6.552L5.424,3ZM20.7,22.2a2.4,2.4,0,1,0,2.4,2.4A2.4,2.4,0,0,0,20.7,22.2Z" transform="translate(-1.5 -3)"/></svg>