<svg xmlns="http://www.w3.org/2000/svg" width="15.012" height="15.012" viewBox="0 0 15.012 15.012">
  <path id="Icon_ionic-ios-help-circle" data-name="Icon ionic-ios-help-circle" d="M10.881,3.375a7.506,7.506,0,1,0,7.506,7.506A7.5,7.5,0,0,0,10.881,3.375Zm-.155,10.97A.744.744,0,1,1,11.5,13.6.753.753,0,0,1,10.726,14.345Zm1.451-3.5c-.628.364-.841.631-.841,1.093v.285H10.083l-.011-.31a1.5,1.5,0,0,1,.852-1.588c.61-.364.866-.6.866-1.043a.876.876,0,0,0-.971-.776.913.913,0,0,0-.967.888H8.571a2.062,2.062,0,0,1,2.335-1.985c1.353,0,2.284.751,2.284,1.83A1.766,1.766,0,0,1,12.176,10.848Z" transform="translate(-3.375 -3.375)" fill="#003d7a"/>
</svg>
