<svg xmlns="http://www.w3.org/2000/svg" width="15" height="15" viewBox="0 0 15 15">
  <path id="Icon_metro-my-location" data-name="Icon metro-my-location" d="M11.356,8.629a2.727,2.727,0,1,0,2.727,2.727A2.727,2.727,0,0,0,11.356,8.629Zm6.1,2.045a6.132,6.132,0,0,0-5.414-5.414v-1.4H10.674v1.4a6.132,6.132,0,0,0-5.414,5.414h-1.4v1.364h1.4a6.132,6.132,0,0,0,5.414,5.414v1.4h1.364v-1.4a6.132,6.132,0,0,0,5.414-5.414h1.4V10.674h-1.4Zm-6.1,5.455a4.773,4.773,0,1,1,4.773-4.773A4.774,4.774,0,0,1,11.356,16.129Z" transform="translate(-3.856 -3.856)" fill="#495a64"/>
</svg>
