<svg xmlns="http://www.w3.org/2000/svg" width="14" height="14" viewBox="0 0 14 14"><defs><style>.a{fill:#778893;}</style></defs><path class="a" d="M18.142,6.234,17.061,4.928a1.129,1.129,0,0,0-.894-.428H6.833a1.156,1.156,0,0,0-.9.428L4.858,6.234a1.523,1.523,0,0,0-.358.988v9.722A1.56,1.56,0,0,0,6.056,18.5H16.944A1.56,1.56,0,0,0,18.5,16.944V7.222A1.523,1.523,0,0,0,18.142,6.234ZM11.5,15.778,7.222,11.5H9.944V9.944h3.111V11.5h2.722ZM6.149,6.056l.63-.778h9.333l.731.778Z" transform="translate(-4.5 -4.5)"/></svg>