<svg xmlns="http://www.w3.org/2000/svg" width="18" height="18" viewBox="0 0 18 18"><defs><style>.a{fill:#778893;}</style></defs><path class="a" d="M6.9,17.4a1.8,1.8,0,1,0,1.8,1.8A1.8,1.8,0,0,0,6.9,17.4ZM1.5,3V4.8H3.3l3.24,6.831L5.325,13.836A1.74,1.74,0,0,0,5.1,14.7a1.805,1.805,0,0,0,1.8,1.8H17.7V14.7H7.278a.223.223,0,0,1-.225-.225l.027-.108L7.89,12.9h6.7a1.791,1.791,0,0,0,1.575-.927l3.222-5.841A.879.879,0,0,0,19.5,5.7a.9.9,0,0,0-.9-.9H5.289L4.443,3ZM15.9,17.4a1.8,1.8,0,1,0,1.8,1.8A1.8,1.8,0,0,0,15.9,17.4Z" transform="translate(-1.5 -3)"/></svg>