<svg xmlns="http://www.w3.org/2000/svg" width="35.806" height="47.741" viewBox="0 0 35.806 47.741">
  <path id="Icon_awesome-file-pdf" data-name="Icon awesome-file-pdf" d="M16.961,23.88c-.466-1.492-.457-4.373-.186-4.373C17.558,19.507,17.483,22.947,16.961,23.88Zm-.159,4.4a43.026,43.026,0,0,1-2.648,5.846,34.335,34.335,0,0,1,5.865-2.042A12.079,12.079,0,0,1,16.8,28.281ZM8.028,39.918c0,.075,1.231-.5,3.254-3.748C10.658,36.757,8.569,38.454,8.028,39.918Zm15.1-25H35.806V45.5a2.232,2.232,0,0,1-2.238,2.238H2.238A2.232,2.232,0,0,1,0,45.5V2.238A2.232,2.232,0,0,1,2.238,0H20.887V12.681A2.244,2.244,0,0,0,23.125,14.919Zm-.746,16.019A9.359,9.359,0,0,1,18.4,25.922c.42-1.725,1.082-4.345.578-5.986-.438-2.741-3.954-2.471-4.457-.634-.466,1.706-.037,4.112.755,7.18a87.559,87.559,0,0,1-3.8,8c-.009,0-.009.009-.019.009-2.527,1.3-6.863,4.149-5.082,6.341a2.9,2.9,0,0,0,2,.932c1.669,0,3.329-1.678,5.7-5.763a53.151,53.151,0,0,1,7.366-2.163A14.131,14.131,0,0,0,27.4,35.657a2.414,2.414,0,0,0,1.837-4.047c-1.3-1.268-5.063-.9-6.863-.671ZM35.153,9.791,26.015.653A2.236,2.236,0,0,0,24.43,0h-.559V11.935H35.806v-.569A2.231,2.231,0,0,0,35.153,9.791ZM28.244,33.6c.382-.252-.233-1.11-3.991-.839C27.712,34.23,28.244,33.6,28.244,33.6Z" fill="#778893"/>
</svg>
