<svg xmlns="http://www.w3.org/2000/svg" width="21.042" height="21.042" viewBox="0 0 21.042 21.042">
  <path id="info_FILL0_wght400_GRAD0_opsz48" d="M13.811,19.782h1.578V13.469H13.811Zm.71-8.259a.864.864,0,0,0,.618-.237.8.8,0,0,0,.25-.6.884.884,0,0,0-.25-.631.858.858,0,0,0-1.236,0,.884.884,0,0,0-.25.631.8.8,0,0,0,.25.6A.864.864,0,0,0,14.521,11.523Zm0,13.52a10.671,10.671,0,0,1-4.156-.8A10.183,10.183,0,0,1,4.8,18.677,10.671,10.671,0,0,1,4,14.521a10.6,10.6,0,0,1,.8-4.13,10.268,10.268,0,0,1,2.223-3.34A10.489,10.489,0,0,1,14.521,4,10.437,10.437,0,0,1,25.042,14.521a10.489,10.489,0,0,1-3.051,7.5,10.268,10.268,0,0,1-3.34,2.223A10.6,10.6,0,0,1,14.521,25.042Zm0-10.521Zm0,8.943a8.609,8.609,0,0,0,6.313-2.63,8.609,8.609,0,0,0,2.63-6.313,8.609,8.609,0,0,0-2.63-6.313,8.609,8.609,0,0,0-6.313-2.63,8.609,8.609,0,0,0-6.313,2.63,8.609,8.609,0,0,0-2.63,6.313,8.609,8.609,0,0,0,2.63,6.313A8.609,8.609,0,0,0,14.521,23.464Z" transform="translate(-4 -4)"/>
</svg>
