<svg xmlns="http://www.w3.org/2000/svg" width="68.525" height="42.829" viewBox="0 0 68.525 42.829">
  <g id="card_x2C__credit_x2C__Mastercard_x2C___bank_x2C__debit_x2C_" transform="translate(-16.002 -105.997)">
    <g id="Mastercard" transform="translate(16.002 105.997)">
      <path id="Path_760" data-name="Path 760" d="M84.527,146.535a2.3,2.3,0,0,1-2.291,2.291H18.293A2.3,2.3,0,0,1,16,146.535V108.289A2.3,2.3,0,0,1,18.293,106H82.235a2.3,2.3,0,0,1,2.291,2.292v38.246Z" transform="translate(-16.002 -105.997)" fill="#14477c"/>
      <path id="Path_761" data-name="Path 761" d="M239.906,194.506l.631-.012.632-.039.617-.091.605-.1.592-.142.592-.154.566-.207.567-.218.54-.246.528-.27.516-.3.5-.321.489-.347.464-.361.437-.386.437-.413.4-.425.387-.45.373-.464.347-.476.309-.5.309-.515.257-.528.258-.553.219-.554.193-.579.167-.58.141-.592.1-.618.077-.6.051-.632.013-.63-.013-.632-.051-.631-.077-.605-.1-.6-.141-.593-.167-.579-.193-.58-.219-.553-.258-.541-.257-.528-.309-.515-.309-.5-.347-.476-.373-.464-.387-.45-.4-.425-.437-.4-.437-.386-.464-.373-.489-.335-.5-.322-.516-.3-.528-.271-.54-.245-.567-.218-.566-.193-.592-.167-.592-.142-.605-.1-.617-.077-.632-.052-.631-.012-.631.012-.617.052-.618.077-.6.1-.593.142-.592.167-.567.193-.553.218-.541.245-.528.271-.515.3-.5.322-.476.335-.465.373-.45.386-.424.4-.413.425-.373.45-.374.464-.334.476-.322.5-.3.515-.271.528-.245.541-.219.553-.192.58-.167.579-.142.593-.1.6-.078.605-.052.631-.013.632.013.63.052.632.078.6.1.618.142.592.167.58.192.579.219.554.245.553.271.528.3.515.322.5.334.476.374.464.373.45.413.425.424.413.45.386.465.361.476.347.5.321.515.3.528.27.541.246.553.218.567.207.592.154.593.142.6.1.618.091.617.039Z" transform="translate(-197.424 -160.806)" fill="#fbb230"/>
      <path id="Path_762" data-name="Path 762" d="M124.449,194.506l.631-.012.617-.039.618-.091.6-.1.593-.142.593-.154.566-.207.553-.218.541-.246.527-.27.515-.3.5-.321.476-.347.465-.361.45-.386.424-.413.413-.425.374-.45.373-.464.334-.476.322-.5.3-.515.271-.528.245-.553.219-.554.193-.579.168-.58.142-.592.1-.618.077-.6.052-.632.013-.63-.013-.632-.052-.631-.077-.605-.1-.6-.142-.593-.168-.579-.193-.58-.219-.553-.245-.541-.271-.528-.3-.515-.322-.5-.334-.476-.373-.464-.374-.45-.413-.425-.424-.4-.45-.386-.465-.373-.476-.335-.5-.322-.515-.3-.527-.271-.541-.245-.553-.218-.566-.193-.593-.167-.593-.142-.6-.1L125.7,170l-.617-.052-.631-.012-.631.012-.632.052-.618.077-.605.1-.591.142-.593.167-.566.193-.567.218-.54.245-.528.271-.516.3-.5.322-.489.335-.464.373-.437.386-.437.4-.4.425-.387.45-.373.464-.347.476-.309.5-.31.515-.257.528-.258.541-.219.553-.193.58-.168.579-.128.593-.116.6-.076.605-.052.631-.012.632.012.63.052.632.076.6.116.618.128.592.168.58.193.579.219.554.258.553.257.528.31.515.309.5.347.476.373.464.387.45.4.425.437.413.437.386.464.361.489.347.5.321.516.3.528.27.54.246.567.218.566.207.593.154.591.142.605.1.618.091.632.039Z" transform="translate(-98.407 -160.806)" fill="#eb2230"/>
      <path id="Path_763" data-name="Path 763" d="M245.943,198.913h6.527v-.67h-5.961Z" transform="translate(-213.116 -185.075)" fill="#fbb230"/>
      <path id="Path_764" data-name="Path 764" d="M239.091,209.283H246.6v-.67h-7.119Z" transform="translate(-207.243 -193.964)" fill="#fbb230"/>
      <path id="Path_765" data-name="Path 765" d="M233.952,219.653h8.239v-.67h-7.943Z" transform="translate(-202.837 -202.854)" fill="#fbb230"/>
      <path id="Path_766" data-name="Path 766" d="M230.434,230.1h8.742v-.656H230.64Z" transform="translate(-199.821 -211.823)" fill="#fbb230"/>
      <path id="Path_767" data-name="Path 767" d="M231.273,280.34h8.471v-.669h-8.676Z" transform="translate(-200.365 -254.878)" fill="#fbb230"/>
      <path id="Path_768" data-name="Path 768" d="M234.982,290.709h7.853v-.669h-8.162Z" transform="translate(-203.455 -263.767)" fill="#fbb230"/>
      <path id="Path_769" data-name="Path 769" d="M240.508,301.08h6.965v-.669h-7.389Z" transform="translate(-208.093 -272.657)" fill="#fbb230"/>
      <path id="Path_770" data-name="Path 770" d="M247.983,311.45h5.754v-.67h-6.346Z" transform="translate(-214.358 -281.546)" fill="#fbb230"/>
      <path id="Path_771" data-name="Path 771" d="M228.363,240.468H237.4v-.657h-8.909Z" transform="translate(-198.046 -220.708)" fill="#fbb230"/>
      <path id="Path_772" data-name="Path 772" d="M266.954,269.969h3.45V269.3h-3.321Z" transform="translate(-231.128 -245.987)" fill="#fbb230"/>
      <path id="Path_773" data-name="Path 773" d="M268.846,259.6h3.18v-.669h-3.051Z" transform="translate(-232.75 -237.099)" fill="#fbb230"/>
      <path id="Path_774" data-name="Path 774" d="M226.736,258.93h.9v.669h-.849Z" transform="translate(-196.651 -237.099)" fill="#fbb230"/>
      <path id="Path_775" data-name="Path 775" d="M388.1,304.379a.585.585,0,0,1,.58.579.579.579,0,1,1-1.159,0,.584.584,0,0,1,.579-.579Zm0,.1a.483.483,0,1,1-.477.476.486.486,0,0,1,.477-.476Z" transform="translate(-334.483 -276.06)" fill="#fbb230"/>
      <path id="Path_776" data-name="Path 776" d="M390.049,307.3v-.489h.206a.281.281,0,0,1,.116.013.178.178,0,0,1,.051.038.2.2,0,0,1,.026.077.156.156,0,0,1-.026.091.254.254,0,0,1-.1.051.223.223,0,0,1,.1.116l.064.1h-.115l-.078-.116a.142.142,0,0,0-.051-.064c0-.012-.013-.012-.026-.026h-.065v.206Zm.1-.283h.065c.051,0,.077,0,.09-.012s.027,0,.027-.013a.067.067,0,0,0,0-.077c-.014-.013-.027-.013-.04-.026h-.142v.129Z" transform="translate(-336.65 -278.143)" fill="#fbb230"/>
      <path id="Path_777" data-name="Path 777" d="M387.2,270.472a.579.579,0,1,1-.579.58.577.577,0,0,1,.579-.58Zm0,.1a.483.483,0,1,1-.489.477.486.486,0,0,1,.489-.477Z" transform="translate(-333.713 -246.993)" fill="#fff"/>
      <path id="Path_778" data-name="Path 778" d="M389.143,273.382V272.9h.206a.28.28,0,0,1,.116.013c.013,0,.038.026.051.039a.176.176,0,0,1,.025.078.113.113,0,0,1-.039.09c-.012.026-.051.039-.09.052.013.012.039.026.052.039a.623.623,0,0,1,.051.077l.065.091h-.116l-.078-.1c-.026-.039-.039-.064-.052-.064s-.012-.026-.025-.026h-.077v.194h-.09Zm.091-.27h.077c.051,0,.077,0,.09-.013a.047.047,0,0,0,.039-.052.135.135,0,0,0-.013-.039c-.013-.012-.026-.026-.039-.026h-.154v.129Z" transform="translate(-335.873 -249.077)" fill="#fff"/>
      <path id="Path_779" data-name="Path 779" d="M332.7,250.6l.836-4.376h1.043l.129.45a1.5,1.5,0,0,1,1.158-.45l-.322,1.159c-.283,0-.721-.052-1.081.8a14.731,14.731,0,0,0-.541,2.42Z" transform="translate(-287.483 -226.202)" fill="#fff"/>
      <path id="Path_780" data-name="Path 780" d="M216.588,238.554h1.158l-.257,1.158h.644l-.193.9h-.579l-.322,1.738c-.064.322,0,.644.644.515l-.128.966a1.171,1.171,0,0,1-1.867-1.159Z" transform="translate(-187.159 -219.632)" fill="#fff"/>
      <path id="Path_781" data-name="Path 781" d="M235.31,248.664c.128-.708.451-2.445-1.622-2.445a2.229,2.229,0,0,0-2.189,2.188,1.9,1.9,0,0,0,2,2.189,5.424,5.424,0,0,0,1.558-.193l.193-.9a6.4,6.4,0,0,1-1.364.129c-.45,0-1.223,0-1.094-.966h2.523Z" transform="translate(-200.72 -226.202)" fill="#fff"/>
      <path id="Path_782" data-name="Path 782" d="M126.6,245.181l1.03-5.278h-2.008l-1.416,3.219-.258-3.219h-1.866l-1.03,5.278h1.159l.773-3.8.322,3.8H124.4l1.673-3.733-.708,3.733Z" transform="translate(-106.055 -220.788)" fill="#fff"/>
      <path id="Path_783" data-name="Path 783" d="M164.655,246.461l-.193.966c.322,0,1.094-.129,1.48-.129s.9-.064.708.58c-.322,0-2.446-.322-2.768,1.545-.179,1.236,1.288,1.686,2.189,1.094l.129.257h1.094l.451-2.381c.476-2.15-1.6-2.189-3.09-1.931Z" transform="translate(-142.758 -226.315)" fill="#fff"/>
      <path id="Path_784" data-name="Path 784" d="M282.992,241.242a1.342,1.342,0,0,0-.85-.18,1.486,1.486,0,0,0-1.327,1.326c-.18,1.21.605,1.751,1.751,1.391l.31,1.03c-1.956.978-3.824-.541-3.206-2.91.5-1.789,2.871-2.87,4.056-1.39Z" transform="translate(-241.925 -220.71)" fill="#fff"/>
      <path id="Path_785" data-name="Path 785" d="M355.784,239.772c-3.154-2.369-4.378,3.862-1.932,3.862a2.421,2.421,0,0,0,1.03-.322l.128.322H356.3l1.03-5.536h-1.223Z" transform="translate(-304.509 -219.239)" fill="#fff"/>
      <path id="Path_786" data-name="Path 786" d="M305.43,246.461l-.193.966c.321,0,1.094-.129,1.48-.129s.837-.064.709.58c-.322,0-2.446-.322-2.767,1.545a1.187,1.187,0,0,0,1.223,1.351,1.438,1.438,0,0,0,.965-.257l.129.257h1.1l.45-2.381c.49-2.15-1.584-2.189-3.09-1.931Z" transform="translate(-263.437 -226.315)" fill="#fff"/>
      <path id="Path_787" data-name="Path 787" d="M240.625,252.72h1.48c.167-1.172-1.236-.94-1.48,0Z" transform="translate(-208.558 -231.095)" fill="#eb2230"/>
      <path id="Path_788" data-name="Path 788" d="M173.727,263.156a1.559,1.559,0,0,0-1.031.129c-.385.257-.515.707-.063.836a.876.876,0,0,0,1.029-.515Z" transform="translate(-150.027 -240.692)" fill="#eb2230"/>
      <path id="Path_789" data-name="Path 789" d="M361.91,253.408c-.386-.516-1.223-.128-1.48.836-.193.644.194,1.094.58,1.094.811,0,1.3-1.326.9-1.931Z" transform="translate(-311.215 -232.167)" fill="#fbb230"/>
      <path id="Path_790" data-name="Path 790" d="M314.942,263.156a1.557,1.557,0,0,0-1.03.129c-.385.257-.514.707-.063.836a.844.844,0,0,0,1.029-.515Z" transform="translate(-271.083 -240.692)" fill="#fbb230"/>
      <path id="Path_791" data-name="Path 791" d="M258.3,251.044l.065-.45.772-3.926h1.029l.128.45a1.5,1.5,0,0,1,1.159-.45l-.322,1.159c-.245,0-.76-.052-1.146.978a15.709,15.709,0,0,0-.464,2.24Z" transform="translate(-223.706 -226.587)" fill="#fff"/>
      <path id="Path_792" data-name="Path 792" d="M195.022,248.2h-.1l-.051-.013-.052-.012h-.052l-.051-.013a3.727,3.727,0,0,0-.656-.025c-.593.051-.85.424-.348.707.4.232.709.193.978.451a1.33,1.33,0,0,1-.361,1.982l-.115.052-.128.052-.141.038-.128.039a4.657,4.657,0,0,1-2.06-.128l.167-.863c.489.1,1.288.322,1.661.065.425-.283.039-.618-.271-.76l-.154-.051-.154-.064a1.22,1.22,0,0,1,.218-2.343,4.661,4.661,0,0,1,1.4-.064h.09a2.379,2.379,0,0,1,.322.051h.051l.039.013h.039l.025.013h.039l-.206.875Z" transform="translate(-166.663 -227.061)" fill="#fff"/>
    </g>
  </g>
</svg>
