<svg id="Page-1" xmlns="http://www.w3.org/2000/svg" width="18" height="20.769" viewBox="0 0 18 20.769">
  <g id="Logos">
    <path id="Download_DK_Gray" d="M57.449,1267.445l-7.044,7a.575.575,0,0,1-.809,0l-7.044-7a.564.564,0,0,1,0-.8l.933-.925a.568.568,0,0,1,.814.009l4.459,4.583v-11.743a.57.57,0,0,1,.571-.566h1.333a.57.57,0,0,1,.571.566v11.743l4.459-4.583a.576.576,0,0,1,.814-.009l.933.925a.555.555,0,0,1,.01.8Zm.989,8.555H41.563a.606.606,0,0,0-.562.639v1.491a.606.606,0,0,0,.563.639H58.438a.606.606,0,0,0,.563-.639v-1.491A.606.606,0,0,0,58.438,1276Z" transform="translate(-41 -1258)" fill="#fff"/>
  </g>
</svg>
