<svg xmlns="http://www.w3.org/2000/svg" width="32.609" height="32.609" viewBox="0 0 32.609 32.609">
  <path id="Icon_awesome-check-square" data-name="Icon awesome-check-square" d="M29.116,34.859H3.494A3.494,3.494,0,0,1,0,31.366V5.744A3.494,3.494,0,0,1,3.494,2.25H29.116a3.494,3.494,0,0,1,3.494,3.494V31.366A3.494,3.494,0,0,1,29.116,34.859Zm-14.9-7.138L27.61,14.329a1.165,1.165,0,0,0,0-1.647l-1.647-1.647a1.165,1.165,0,0,0-1.647,0L13.393,21.957l-5.1-5.1a1.165,1.165,0,0,0-1.647,0L5,18.5a1.165,1.165,0,0,0,0,1.647l7.57,7.57a1.165,1.165,0,0,0,1.647,0Z" transform="translate(0 -2.25)" fill="#00afe2"/>
</svg>
