<svg xmlns="http://www.w3.org/2000/svg" width="16.325" height="18.003" viewBox="0 0 16.325 18.003">
  <path id="Icon_simple-email" data-name="Icon simple-email" d="M17.984,8.309a9.285,9.285,0,0,1-.3,2.014,5.827,5.827,0,0,1-.783,1.768,4.132,4.132,0,0,1-1.327,1.257,3.746,3.746,0,0,1-1.938.478,2.81,2.81,0,0,1-1.4-.343,2.4,2.4,0,0,1-.947-.971,3,3,0,0,1-2.54,1.276A2.583,2.583,0,0,1,6.53,12.6a3.9,3.9,0,0,1-.551-1.381,5.958,5.958,0,0,1-.072-1.8A8.372,8.372,0,0,1,6.455,7.2,6,6,0,0,1,7.47,5.514,4.293,4.293,0,0,1,8.865,4.436a3.892,3.892,0,0,1,1.7-.377,5.275,5.275,0,0,1,1.015.087,4.154,4.154,0,0,1,.787.236,4.258,4.258,0,0,1,.652.344c.2.128.4.261.6.4l-.493,5.67a1.885,1.885,0,0,0,.015.664.929.929,0,0,0,.2.409.729.729,0,0,0,.328.214,1.219,1.219,0,0,0,1.154-.227,2.46,2.46,0,0,0,.619-.787,5.072,5.072,0,0,0,.416-1.183,8.12,8.12,0,0,0,.182-1.474,9.418,9.418,0,0,0-.232-2.754,5.474,5.474,0,0,0-1.019-2.131A4.733,4.733,0,0,0,12.961,2.15,6.631,6.631,0,0,0,10.3,1.663a5.877,5.877,0,0,0-2.632.574,6.04,6.04,0,0,0-2,1.591A7.634,7.634,0,0,0,4.357,6.22,10.783,10.783,0,0,0,3.806,9.2a9.913,9.913,0,0,0,.281,3.042A5.494,5.494,0,0,0,5.2,14.423a4.638,4.638,0,0,0,1.883,1.309,7.224,7.224,0,0,0,2.6.434,8.9,8.9,0,0,0,1.705-.183c.281-.056.548-.124.8-.2a6.037,6.037,0,0,0,.691-.247l.357,1.6a3.959,3.959,0,0,1-.773.382,7.439,7.439,0,0,1-.913.264A8.913,8.913,0,0,1,9.641,18a10.006,10.006,0,0,1-3.478-.56,6.4,6.4,0,0,1-2.536-1.667,7,7,0,0,1-1.522-2.753A11.742,11.742,0,0,1,1.68,9.2a11.655,11.655,0,0,1,.731-3.667A9.076,9.076,0,0,1,4.173,2.62,8.028,8.028,0,0,1,6.86.7,8.414,8.414,0,0,1,10.341,0a8.785,8.785,0,0,1,3.373.6,6.56,6.56,0,0,1,2.434,1.7,6.971,6.971,0,0,1,1.444,2.625A10.036,10.036,0,0,1,17.984,8.309Zm-9.661,1.1a3.827,3.827,0,0,0,.2,1.9,1.018,1.018,0,0,0,.979.641,1.081,1.081,0,0,0,.335-.062,1.2,1.2,0,0,0,.386-.232,2.059,2.059,0,0,0,.391-.472,3.626,3.626,0,0,0,.36-.8l.385-4.405a2.3,2.3,0,0,0-.6-.079,2.069,2.069,0,0,0-1,.228,1.971,1.971,0,0,0-.705.67,3.937,3.937,0,0,0-.468,1.1A9.352,9.352,0,0,0,8.324,9.41Z" transform="translate(-1.67)" fill="#545859"/>
</svg>
