<svg xmlns="http://www.w3.org/2000/svg" width="121.751" height="121.751" viewBox="0 0 121.751 121.751"><defs><style>.a{fill:#0b961b;}</style></defs><path class="a" d="M73.124,17.855l-5.151-5.3a1.108,1.108,0,0,0-.819-.351h0a1.063,1.063,0,0,0-.819.351L30.629,48.527,17.634,35.532a1.132,1.132,0,0,0-1.639,0l-5.21,5.21a1.166,1.166,0,0,0,0,1.668L27.175,58.8A5.183,5.183,0,0,0,30.6,60.468a5.431,5.431,0,0,0,3.395-1.61h.029l39.13-39.335A1.251,1.251,0,0,0,73.124,17.855Z" transform="translate(18.95 24.553)"/><path class="a" d="M64.25,11.57a52.689,52.689,0,0,1,37.257,89.938A52.689,52.689,0,0,1,26.993,26.993,52.332,52.332,0,0,1,64.25,11.57m0-8.195A60.875,60.875,0,1,0,125.126,64.25,60.866,60.866,0,0,0,64.25,3.375Z" transform="translate(-3.375 -3.375)"/></svg>